<mxfile host="app.diagrams.net" modified="2024-02-13T19:22:22.122Z" agent="Mozilla/5.0 (Windows NT 10.0; Win64; x64) AppleWebKit/537.36 (KHTML, like Gecko) Chrome/121.0.0.0 Safari/537.36" etag="9ljC2kZIKBbfeNOstN9X" version="23.0.2" type="device">
  <diagram name="Página-1" id="fWRkVDQu3miWPbcwgWtV">
    <mxGraphModel dx="1335" dy="802" grid="0" gridSize="10" guides="1" tooltips="1" connect="1" arrows="1" fold="1" page="0" pageScale="1" pageWidth="827" pageHeight="1169" math="0" shadow="0">
      <root>
        <mxCell id="0" />
        <mxCell id="1" parent="0" />
        <mxCell id="iEhos7HI4KBSH5ikQolV-1" value="Cadena" style="swimlane;fontStyle=1;align=center;verticalAlign=top;childLayout=stackLayout;horizontal=1;startSize=26;horizontalStack=0;resizeParent=1;resizeParentMax=0;resizeLast=0;collapsible=1;marginBottom=0;whiteSpace=wrap;html=1;fontSize=16;fillColor=#2C701B;strokeColor=#006EAF;fontColor=#ffffff;" vertex="1" parent="1">
          <mxGeometry x="120" y="166" width="392" height="351" as="geometry" />
        </mxCell>
        <mxCell id="iEhos7HI4KBSH5ikQolV-2" value="- cadena: String&lt;br&gt;- tamaño: int" style="text;strokeColor=none;fillColor=none;align=left;verticalAlign=top;spacingLeft=4;spacingRight=4;overflow=hidden;rotatable=0;points=[[0,0.5],[1,0.5]];portConstraint=eastwest;whiteSpace=wrap;html=1;fontSize=16;" vertex="1" parent="iEhos7HI4KBSH5ikQolV-1">
          <mxGeometry y="26" width="392" height="65" as="geometry" />
        </mxCell>
        <mxCell id="iEhos7HI4KBSH5ikQolV-3" value="" style="line;strokeWidth=1;fillColor=none;align=left;verticalAlign=middle;spacingTop=-1;spacingLeft=3;spacingRight=3;rotatable=0;labelPosition=right;points=[];portConstraint=eastwest;strokeColor=inherit;fontSize=16;" vertex="1" parent="iEhos7HI4KBSH5ikQolV-1">
          <mxGeometry y="91" width="392" height="8" as="geometry" />
        </mxCell>
        <mxCell id="iEhos7HI4KBSH5ikQolV-4" value="&lt;div&gt;&lt;span style=&quot;background-color: initial;&quot;&gt;+Cadena(String cadena)&lt;/span&gt;&lt;br&gt;&lt;/div&gt;&lt;div&gt;&lt;br&gt;&lt;/div&gt;&lt;div&gt;+escribirCadena(): String&lt;/div&gt;&lt;div&gt;+longitud(): int&lt;/div&gt;&lt;div&gt;&lt;br&gt;&lt;/div&gt;&lt;div&gt;+copiar(): String&lt;/div&gt;&lt;div&gt;+numeroVocales(): int&lt;/div&gt;&lt;div&gt;&lt;span style=&quot;background-color: initial;&quot;&gt;+contieneVocal(): boolean&lt;/span&gt;&lt;/div&gt;&lt;div&gt;+contieneCadena(String cadenaContenida): boolean&lt;/div&gt;&lt;div&gt;+convertirMayusculas(): String&lt;/div&gt;&lt;div&gt;+eliminarVocales(): void&lt;/div&gt;&lt;div&gt;&amp;nbsp;-esVocal(char letra): boolean&lt;/div&gt;" style="text;strokeColor=none;fillColor=none;align=left;verticalAlign=top;spacingLeft=4;spacingRight=4;overflow=hidden;rotatable=0;points=[[0,0.5],[1,0.5]];portConstraint=eastwest;whiteSpace=wrap;html=1;fontSize=16;" vertex="1" parent="iEhos7HI4KBSH5ikQolV-1">
          <mxGeometry y="99" width="392" height="252" as="geometry" />
        </mxCell>
      </root>
    </mxGraphModel>
  </diagram>
</mxfile>
